# xmcd
#
# Track frame offsets:
#	150
#	16534
#	32884
#
# Disc length: 654 seconds
#
# Revision: 1
# Processed by: cddbd v1.5.1PL0 Copyright (c) Steve Scherf et al.
# Submitted via: EasyCDDAExtractor 6.2.0.3
#
DISCID=15028c03
DTITLE=Chingy - Balla Baby CDS
DYEAR=2004
DGENRE=R&B
TTITLE0=Balla Baby (Radio Edit)
TTITLE1=Balla Baby
TTITLE2=Balla Baby (Instrumental)
EXTD=
EXTT0=
EXTT1=
EXTT2=
PLAYORDER=
